<?xml version="1.0" encoding="utf-8"?>
<!-- Generator: Adobe Illustrator 16.0.0, SVG Export Plug-In . SVG Version: 6.00 Build 0)  -->
<!DOCTYPE svg PUBLIC "-//W3C//DTD SVG 1.1//EN" "http://www.w3.org/Graphics/SVG/1.1/DTD/svg11.dtd">
<svg version="1.1" id="Layer_1" xmlns="http://www.w3.org/2000/svg" xmlns:xlink="http://www.w3.org/1999/xlink" x="0px" y="0px"
	 width="288.417px" height="205.007px" viewBox="0 0 288.417 205.007" enable-background="new 0 0 288.417 205.007"
	 xml:space="preserve">
<g>
	<g>
		<g>
			<linearGradient id="SVGID_1_" gradientUnits="userSpaceOnUse" x1="195.8501" y1="102.5034" x2="275.98" y2="102.5034">
				<stop  offset="0" style="stop-color:#FDE93C"/>
				<stop  offset="0.0269" style="stop-color:#FCDD3B"/>
				<stop  offset="0.0892" style="stop-color:#F9C539"/>
				<stop  offset="0.158" style="stop-color:#F7B037"/>
				<stop  offset="0.2336" style="stop-color:#F69E35"/>
				<stop  offset="0.319" style="stop-color:#F59233"/>
				<stop  offset="0.4195" style="stop-color:#F48932"/>
				<stop  offset="0.5499" style="stop-color:#F48431"/>
				<stop  offset="0.8187" style="stop-color:#F48231"/>
				<stop  offset="1" style="stop-color:#F48231"/>
			</linearGradient>
			<path fill="url(#SVGID_1_)" d="M244.817,0.944c-2.193,3.225-2.957,6.666-2.627,10.129c0.111,1.156,0.225,2.281,0.561,3.494
				c0.264,0.945,0.604,1.867,0.879,2.799c1.344,3.629,1.455,6.979,0.75,10.139c-0.232,1.055-0.479,2.096-0.969,3.104
				c-0.373,0.766-1.496,2.369-3.025,3.914c-3.135,3.166-6.33,6.408-9.184,9.881c-0.951,1.158-1.854,2.35-2.736,3.549
				c-1.703,2.32-3.688,5.441-5.033,8.512c-0.672,1.539-1.396,3.211-1.896,4.826c-0.578,1.873-1.061,3.373-1.412,4.984
				c-3.662,15.271,6.439,22.539,17.447,32.217c1.102,0.969,2.176,1.953,3.312,2.82c2.186,1.664,4.498,3.497,6.596,5.417
				c1.049,0.959,2.07,1.949,3.062,2.967c4.223,4.246,8.004,8.998,11.086,14.15c1.539,2.578,2.902,5.254,4.062,8.018
				c5.52,14.164,6.438,30.24,0.246,43.836c-1.471,2.984-3.26,5.811-5.381,8.359c-2.125,2.551-4.584,4.826-7.363,6.711
				c-1.006,0.672-2.055,1.293-3.135,1.865c-5.402,2.852-11.648,4.416-17.898,4.518c-1.25,0.021-2.498-0.018-3.734-0.117
				c-2.217-0.08-4.406-0.402-6.543-0.938c-1.07-0.271-2.125-0.59-3.164-0.963c-11.859-4.096-21.971-15.578-21.908-28.998
				c0,0-0.766,1.783-0.881,3.479c-0.074,1.111-0.104,2.223-0.051,3.332c1.328,14.414,11.898,25.896,25,30.318
				c2.779,0.85,5.691,1.387,8.668,1.574c1.6,0.139,3.215,0.188,4.834,0.156c2.432-0.049,4.869-0.283,7.287-0.701
				c2.416-0.418,4.807-1.02,7.139-1.797c12.293-4.572,21.025-14.68,24.945-27.139c0.799-2.613,1.385-5.291,1.752-7.982
				c0.371-2.689,0.523-5.396,0.465-8.068c0.004-1.426-0.045-2.859-0.135-4.293c-0.273-4.301-0.932-8.557-1.906-12.65
				c-0.252-1.141-0.529-2.273-0.83-3.402c-1.119-3.943-2.562-7.777-4.256-11.5c-0.564-1.242-1.156-2.475-1.773-3.689
				c-3.857-7.865-9.539-14.812-14.693-22.104c-1.717-2.43-3.377-4.896-4.893-7.475c-7.986-12.922-11.205-23.037-7.58-37.535
				c0.676-2.875,1.562-5.711,2.652-8.492c1.09-2.779,2.379-5.502,3.855-8.146c0.637-1.266,1.299-2.525,1.955-3.781
				c0.658-1.256,1.41-2.461,1.957-3.756c0.477-1.119,0.92-2.666,1.039-4.066c0.104-1.193-0.141-2.775-0.465-4.113
				c-0.98-4.01-3.244-7.742-4.967-11.473c-1.842-4.135-2.301-8.727-0.453-12.828L244.817,0.944z"/>
		</g>
	</g>
	<g>
		<g>
			<linearGradient id="SVGID_2_" gradientUnits="userSpaceOnUse" x1="203.3013" y1="163.4673" x2="264.562" y2="163.4673">
				<stop  offset="0" style="stop-color:#FDE93C"/>
				<stop  offset="0.0269" style="stop-color:#FCDD3B"/>
				<stop  offset="0.0892" style="stop-color:#F9C539"/>
				<stop  offset="0.158" style="stop-color:#F7B037"/>
				<stop  offset="0.2336" style="stop-color:#F69E35"/>
				<stop  offset="0.319" style="stop-color:#F59233"/>
				<stop  offset="0.4195" style="stop-color:#F48932"/>
				<stop  offset="0.5499" style="stop-color:#F48431"/>
				<stop  offset="0.8187" style="stop-color:#F48231"/>
				<stop  offset="1" style="stop-color:#F48231"/>
			</linearGradient>
			<path fill="url(#SVGID_2_)" d="M255.311,172.111c-0.885,1.289-1.898,2.508-3.047,3.645c-1.15,1.135-2.457,2.143-3.848,3.143
				c-1.271,0.916-2.562,1.83-3.99,2.57c-1.428,0.738-2.957,1.357-4.59,1.834c-1.395,0.42-2.826,0.721-4.283,0.908
				c-1.455,0.188-2.797,0.275-4.299,0.301c-0.477,0.01-0.779,0.033-1.32,0.025c-0.404-0.008-1.111-0.033-2.404-0.104
				c-10.475-0.555-20.553-6.82-24.229-16.465c0.459,11.48,10.676,20.562,21.385,22.857c1.693,0.363,3.383,0.561,5.059,0.725
				c1.896,0.186,3.602,0.238,6.004,0.004c2.873-0.281,5.768-1.447,7.125-2c1.348-0.547,2.396-1.104,3.92-1.934
				c1.561-0.854,3.049-1.746,4.404-2.771c1.357-1.025,2.605-2.148,3.746-3.354c1.18-1.168,2.262-2.424,3.24-3.746
				c0.98-1.326,1.953-2.658,2.621-4.17c5.109-11.539,5.467-26.281-1.801-37.441l-0.736-0.914
				C260.758,147.302,262.135,161.08,255.311,172.111"/>
		</g>
	</g>
	<g>
		<g>
			<linearGradient id="SVGID_3_" gradientUnits="userSpaceOnUse" x1="245.9888" y1="118.9946" x2="288.4165" y2="118.9946">
				<stop  offset="0" style="stop-color:#FDE93C"/>
				<stop  offset="0.0269" style="stop-color:#FCDD3B"/>
				<stop  offset="0.0892" style="stop-color:#F9C539"/>
				<stop  offset="0.158" style="stop-color:#F7B037"/>
				<stop  offset="0.2336" style="stop-color:#F69E35"/>
				<stop  offset="0.319" style="stop-color:#F59233"/>
				<stop  offset="0.4195" style="stop-color:#F48932"/>
				<stop  offset="0.5499" style="stop-color:#F48431"/>
				<stop  offset="0.8187" style="stop-color:#F48231"/>
				<stop  offset="1" style="stop-color:#F48231"/>
			</linearGradient>
			<path fill="url(#SVGID_3_)" d="M251.563,48.55c-1.576,2.133-2.85,4.33-3.748,7.115c-0.801,2.473-1.627,4.908-1.775,7.428
				c-0.582,9.812,4.023,17.422,5.027,19.443c0.678,1.348,1.402,2.674,2.176,4.008c0.543,0.969,1.104,1.926,1.682,2.867
				c0.58,0.941,1.176,1.871,1.779,2.812c0.482,0.752,1.256,2.031,1.9,3.068c7.244,11.5,16.402,21.698,20.746,34.918
				c0.447,1.312,0.865,2.637,1.258,3.973c1.178,4.008,2.111,8.111,2.857,12.266c0.242,1.445,0.398,2.879,0.514,4.312
				c0.336,4.318,0.348,8.695,0.008,13.115c-0.104,1.381-0.256,2.748-0.461,4.104c-1.402,9.48-5.602,18.334-10.59,26.844l3.121-4.816
				c1.025-1.65,2.033-3.312,3.021-4.984c0.49-0.834,1.064-1.848,1.439-2.516c2.23-3.979,5.172-12.049,6.541-18.416
				c0.344-1.592,0.633-3.197,0.855-4.818c0.221-1.623,0.375-3.26,0.461-4.912c0.418-14.402-2.34-28.643-9.113-41.412
				c-0.73-1.432-1.486-2.834-2.275-4.217c-0.789-1.381-1.666-2.676-2.514-4.014c-0.85-1.342-1.752-2.686-2.58-4.006
				c-7.928-12.646-15.66-21.852-15.27-36.869c0.037-1.396,0.127-3.039,0.381-4.486c0.258-1.447,0.557-2.641,1.152-4.188
				c0.527-1.363,1.355-2.604,2.227-3.816c0.875-1.215,1.812-2.434,3.012-3.439c1.197-1.008,2.299-1.479,3.648-1.963
				c1.35-0.479,2.551-0.795,4.428-0.434l2.199,0.512c-2.789-1.879-6.334-2.863-9.873-2.863
				C259.114,43.163,254.444,44.888,251.563,48.55"/>
		</g>
	</g>
	<g>
		<g>
			<path fill="#EBE6DC" d="M0,116.783h26.191v4.924H5.116V133.9h18.532v4.785H5.116v18.266H0V116.783z"/>
			<path fill="#EBE6DC" d="M29.404,116.783h5.115v35.385h18.942v4.783H29.404V116.783z"/>
			<path fill="#EBE6DC" d="M67.435,116.783h5.774l13.703,40.168H81.31l-3.942-12.029H62.554l-4.095,12.029h-5.244L67.435,116.783z
				 M75.917,140.49l-5.813-17.744l-6.041,17.744H75.917z"/>
			<path fill="#EBE6DC" d="M89.135,116.783h7.328l10.856,33.963l10.78-33.963h7.275v40.168h-4.883v-23.705
				c0-0.82,0.016-2.18,0.051-4.074c0.035-1.896,0.052-3.93,0.052-6.1l-10.78,33.879h-5.068l-10.883-33.879v1.23
				c0,0.982,0.026,2.482,0.077,4.498c0.052,2.016,0.077,3.496,0.077,4.441v23.707h-4.883V116.783z"/>
			<path fill="#EBE6DC" d="M130.721,116.783h7.328l10.855,33.963l10.779-33.963h7.277v40.168h-4.883v-23.705
				c0-0.82,0.016-2.18,0.051-4.074c0.033-1.896,0.051-3.93,0.051-6.1l-10.779,33.879h-5.068l-10.881-33.879v1.23
				c0,0.982,0.025,2.482,0.076,4.498c0.053,2.016,0.077,3.496,0.077,4.441v23.707h-4.883L130.721,116.783L130.721,116.783z"/>
			<path fill="#EBE6DC" d="M172.922,116.783h27.396v4.924h-22.41V133.9h20.717v4.648h-20.717v13.617h22.799v4.783h-27.785V116.783
				L172.922,116.783z"/>
			<path fill="#EBE6DC" d="M205.284,116.783h6.023l18.828,32.455v-32.455h4.885v40.168h-5.746l-19.107-32.416v32.416h-4.883V116.783
				z"/>
		</g>
		<g>
			<path fill="#EBE6DC" d="M0.25,98.968h4.892c0.806,0,1.47,0.119,1.991,0.359c0.994,0.459,1.49,1.305,1.49,2.541
				c0,0.645-0.134,1.172-0.399,1.583c-0.267,0.41-0.64,0.74-1.117,0.988c0.42,0.172,0.735,0.396,0.948,0.674s0.33,0.73,0.355,1.355
				l0.051,1.439c0.015,0.41,0.049,0.719,0.103,0.916c0.088,0.344,0.244,0.562,0.47,0.66v0.24H7.247
				c-0.05-0.092-0.088-0.211-0.117-0.357c-0.029-0.145-0.055-0.43-0.073-0.85l-0.089-1.795c-0.032-0.703-0.286-1.174-0.76-1.414
				c-0.271-0.131-0.695-0.197-1.274-0.197H1.709v4.613H0.25V98.968z M4.985,103.898c0.665,0,1.189-0.139,1.578-0.41
				c0.389-0.273,0.581-0.768,0.581-1.479c0-0.768-0.271-1.289-0.812-1.568c-0.291-0.145-0.678-0.219-1.162-0.219H1.709v3.676H4.985
				L4.985,103.898z"/>
			<path fill="#EBE6DC" d="M10.777,98.968h7.808v1.318h-6.387v3.266h5.903v1.248h-5.903v3.645h6.497v1.281h-7.917L10.777,98.968
				L10.777,98.968z"/>
			<path fill="#EBE6DC" d="M21.325,106.257c0.033,0.607,0.172,1.104,0.416,1.484c0.467,0.715,1.287,1.07,2.463,1.07
				c0.526,0,1.006-0.078,1.438-0.232c0.837-0.305,1.256-0.848,1.256-1.629c0-0.586-0.177-1.004-0.532-1.252
				c-0.359-0.242-0.922-0.457-1.688-0.637l-1.412-0.33c-0.922-0.215-1.575-0.451-1.958-0.711c-0.662-0.451-0.993-1.122-0.993-2.016
				c0-0.967,0.326-1.76,0.977-2.381c0.651-0.619,1.573-0.93,2.766-0.93c1.098,0,2.029,0.271,2.798,0.816
				c0.767,0.545,1.151,1.414,1.151,2.611h-1.371c-0.069-0.576-0.219-1.02-0.448-1.326c-0.427-0.562-1.149-0.842-2.17-0.842
				c-0.824,0-1.417,0.18-1.777,0.541s-0.541,0.781-0.541,1.26c0,0.527,0.214,0.914,0.64,1.158c0.279,0.155,0.91,0.352,1.895,0.584
				l1.462,0.344c0.705,0.168,1.249,0.396,1.632,0.684c0.663,0.502,0.994,1.232,0.994,2.189c0,1.189-0.423,2.043-1.268,2.557
				c-0.846,0.512-1.827,0.771-2.946,0.771c-1.306,0-2.326-0.344-3.063-1.025c-0.739-0.68-1.102-1.6-1.086-2.762h1.367V106.257z"/>
			<path fill="#EBE6DC" d="M37.93,98.968v1.281h-3.625v9.479h-1.473v-9.479h-3.625v-1.281H37.93z"/>
			<path fill="#EBE6DC" d="M41.034,98.968h1.646l3.904,10.76h-1.597l-1.124-3.223h-4.221l-1.167,3.223h-1.494L41.034,98.968z
				 M43.452,105.318l-1.656-4.754l-1.723,4.754H43.452z"/>
			<path fill="#EBE6DC" d="M49.204,98.968v6.653c0,0.779,0.147,1.43,0.443,1.945c0.438,0.781,1.176,1.172,2.215,1.172
				c1.245,0,2.092-0.422,2.54-1.268c0.241-0.459,0.362-1.076,0.362-1.854v-6.651h1.472v6.043c0,1.324-0.179,2.342-0.537,3.055
				c-0.657,1.299-1.896,1.949-3.719,1.949s-3.06-0.65-3.711-1.949c-0.358-0.713-0.537-1.729-0.537-3.055v-6.043L49.204,98.968
				L49.204,98.968z"/>
			<path fill="#EBE6DC" d="M58.368,98.968h4.891c0.806,0,1.47,0.119,1.992,0.359c0.992,0.459,1.488,1.305,1.488,2.541
				c0,0.645-0.133,1.172-0.398,1.583c-0.268,0.41-0.639,0.74-1.117,0.988c0.42,0.172,0.736,0.396,0.947,0.674
				c0.213,0.277,0.332,0.73,0.355,1.355l0.051,1.439c0.016,0.41,0.049,0.719,0.104,0.916c0.088,0.344,0.244,0.562,0.469,0.66v0.24
				h-1.787c-0.049-0.092-0.088-0.211-0.117-0.357c-0.029-0.145-0.054-0.43-0.072-0.85l-0.088-1.795
				c-0.033-0.703-0.287-1.174-0.762-1.414c-0.271-0.131-0.695-0.197-1.273-0.197h-3.225v4.613h-1.457V98.968L58.368,98.968z
				 M63.101,103.898c0.665,0,1.19-0.139,1.578-0.41c0.388-0.273,0.581-0.768,0.581-1.479c0-0.768-0.271-1.289-0.812-1.568
				c-0.289-0.145-0.677-0.219-1.16-0.219h-3.461v3.676H63.101L63.101,103.898z"/>
			<path fill="#EBE6DC" d="M71.894,98.968h1.646l3.905,10.76h-1.597l-1.124-3.223h-4.222l-1.166,3.223h-1.494L71.894,98.968z
				 M74.311,105.318l-1.656-4.754l-1.722,4.754H74.311z"/>
			<path fill="#EBE6DC" d="M78.489,98.968h1.717l5.366,8.696v-8.696h1.392v10.76h-1.637l-5.445-8.684v8.684H78.49L78.489,98.968
				L78.489,98.968z"/>
			<path fill="#EBE6DC" d="M96.874,98.968v1.281h-3.625v9.479h-1.472v-9.479h-3.625v-1.281H96.874z"/>
		</g>
	</g>
</g>
</svg>
